<mxfile host="65bd71144e">
    <diagram id="6toyzqFZqwtWUhcVSEsK" name="Page-1">
        <mxGraphModel dx="1216" dy="594" grid="0" gridSize="10" guides="1" tooltips="1" connect="1" arrows="1" fold="1" page="1" pageScale="1" pageWidth="1169" pageHeight="827" background="#ffffff" math="0" shadow="0">
            <root>
                <mxCell id="0"/>
                <mxCell id="1" parent="0"/>
                <mxCell id="2" value="" style="shape=table;startSize=0;container=1;collapsible=0;childLayout=tableLayout;strokeColor=#050505;fillColor=#3399FF;strokeWidth=2;" parent="1" vertex="1">
                    <mxGeometry x="352" y="21" width="116" height="253.72618832795519" as="geometry"/>
                </mxCell>
                <mxCell id="3" value="" style="shape=tableRow;horizontal=0;startSize=0;swimlaneHead=0;swimlaneBody=0;top=0;left=0;bottom=0;right=0;collapsible=0;dropTarget=0;fillColor=none;points=[[0,0.5],[1,0.5]];portConstraint=eastwest;" parent="2" vertex="1">
                    <mxGeometry width="116" height="29" as="geometry"/>
                </mxCell>
                <mxCell id="4" value="&lt;font color=&quot;#000000&quot;&gt;Marque&lt;/font&gt;" style="shape=partialRectangle;html=1;whiteSpace=wrap;connectable=0;overflow=hidden;fillColor=#3399FF;top=0;left=0;bottom=0;right=0;pointerEvents=1;align=center;fontColor=#ffffff;strokeColor=#000000;strokeWidth=2;" parent="3" vertex="1">
                    <mxGeometry width="116" height="29" as="geometry">
                        <mxRectangle width="116" height="29" as="alternateBounds"/>
                    </mxGeometry>
                </mxCell>
                <mxCell id="5" value="" style="shape=tableRow;horizontal=0;startSize=0;swimlaneHead=0;swimlaneBody=0;top=0;left=0;bottom=0;right=0;collapsible=0;dropTarget=0;fillColor=none;points=[[0,0.5],[1,0.5]];portConstraint=eastwest;" parent="2" vertex="1">
                    <mxGeometry y="29" width="116" height="165" as="geometry"/>
                </mxCell>
                <mxCell id="6" value="&lt;div style=&quot;text-align: left;&quot;&gt;&lt;span style=&quot;background-color: initial;&quot;&gt;- marqId: string&lt;/span&gt;&lt;/div&gt;&lt;div style=&quot;text-align: left;&quot;&gt;&lt;span style=&quot;background-color: initial;&quot;&gt;- gestName: string&lt;/span&gt;&lt;/div&gt;&lt;div style=&quot;text-align: left;&quot;&gt;&lt;span style=&quot;background-color: initial;&quot;&gt;- gestEmail: string&lt;/span&gt;&lt;/div&gt;&lt;div style=&quot;text-align: left;&quot;&gt;&lt;span style=&quot;background-color: initial;&quot;&gt;- gestPost: string&lt;/span&gt;&lt;/div&gt;&lt;div style=&quot;text-align: left;&quot;&gt;&lt;span style=&quot;background-color: initial;&quot;&gt;- marqName: string&lt;/span&gt;&lt;/div&gt;&lt;div style=&quot;text-align: left;&quot;&gt;&lt;span style=&quot;background-color: initial;&quot;&gt;- marqPhone: int&lt;/span&gt;&lt;/div&gt;&lt;div style=&quot;text-align: left;&quot;&gt;&lt;span style=&quot;background-color: initial;&quot;&gt;- marqEmail: string&lt;/span&gt;&lt;/div&gt;&lt;div style=&quot;text-align: left;&quot;&gt;&lt;span style=&quot;background-color: initial;&quot;&gt;- marqWeb: string&lt;/span&gt;&lt;/div&gt;&lt;div style=&quot;text-align: left;&quot;&gt;&lt;span style=&quot;background-color: initial;&quot;&gt;- marqContry: string&lt;/span&gt;&lt;/div&gt;&lt;div style=&quot;text-align: left;&quot;&gt;&lt;span style=&quot;background-color: initial;&quot;&gt;- marqAdres: string&lt;/span&gt;&lt;/div&gt;&lt;div style=&quot;text-align: left;&quot;&gt;&lt;span style=&quot;background-color: initial;&quot;&gt;- marqSocId: string&lt;/span&gt;&lt;/div&gt;" style="shape=partialRectangle;html=1;whiteSpace=wrap;connectable=0;overflow=hidden;fillColor=#3399FF;top=0;left=0;bottom=0;right=0;pointerEvents=1;fontColor=#000000;strokeColor=#000000;strokeWidth=1;" parent="5" vertex="1">
                    <mxGeometry width="116" height="165" as="geometry">
                        <mxRectangle width="116" height="165" as="alternateBounds"/>
                    </mxGeometry>
                </mxCell>
                <mxCell id="7" value="" style="shape=tableRow;horizontal=0;startSize=0;swimlaneHead=0;swimlaneBody=0;top=0;left=0;bottom=0;right=0;collapsible=0;dropTarget=0;fillColor=none;points=[[0,0.5],[1,0.5]];portConstraint=eastwest;" parent="2" vertex="1">
                    <mxGeometry y="194" width="116" height="60" as="geometry"/>
                </mxCell>
                <mxCell id="8" value="&amp;nbsp;+ create()&lt;br&gt;&amp;nbsp;+ read ()&lt;br&gt;&amp;nbsp;+ update ()&lt;br&gt;&amp;nbsp;+ delete()" style="shape=partialRectangle;html=1;whiteSpace=wrap;connectable=0;overflow=hidden;fillColor=#3399FF;top=0;left=0;bottom=0;right=0;pointerEvents=1;fontColor=#000000;align=left;strokeColor=#000000;strokeWidth=1;" parent="7" vertex="1">
                    <mxGeometry width="116" height="60" as="geometry">
                        <mxRectangle width="116" height="60" as="alternateBounds"/>
                    </mxGeometry>
                </mxCell>
                <mxCell id="9" value="" style="shape=table;startSize=0;container=1;collapsible=0;childLayout=tableLayout;strokeColor=#000000;fillColor=#1ba1e2;strokeWidth=1;fontColor=#ffffff;" parent="1" vertex="1">
                    <mxGeometry x="725" y="25" width="116" height="266.27508544921875" as="geometry"/>
                </mxCell>
                <mxCell id="10" value="" style="shape=tableRow;horizontal=0;startSize=0;swimlaneHead=0;swimlaneBody=0;top=0;left=0;bottom=0;right=0;collapsible=0;dropTarget=0;fillColor=none;points=[[0,0.5],[1,0.5]];portConstraint=eastwest;" parent="9" vertex="1">
                    <mxGeometry width="116" height="29" as="geometry"/>
                </mxCell>
                <mxCell id="11" value="&lt;font color=&quot;#000000&quot;&gt;Campagne&lt;/font&gt;" style="shape=partialRectangle;html=1;whiteSpace=wrap;connectable=0;overflow=hidden;fillColor=#1ba1e2;top=0;left=0;bottom=0;right=0;pointerEvents=1;align=center;fontColor=#ffffff;strokeColor=#000000;" parent="10" vertex="1">
                    <mxGeometry width="116" height="29" as="geometry">
                        <mxRectangle width="116" height="29" as="alternateBounds"/>
                    </mxGeometry>
                </mxCell>
                <mxCell id="12" value="" style="shape=tableRow;horizontal=0;startSize=0;swimlaneHead=0;swimlaneBody=0;top=0;left=0;bottom=0;right=0;collapsible=0;dropTarget=0;fillColor=none;points=[[0,0.5],[1,0.5]];portConstraint=eastwest;" parent="9" vertex="1">
                    <mxGeometry y="29" width="116" height="177" as="geometry"/>
                </mxCell>
                <mxCell id="13" value="&lt;div style=&quot;text-align: left;&quot;&gt;&lt;span style=&quot;background-color: initial;&quot;&gt;- campId: string&lt;/span&gt;&lt;/div&gt;&lt;div style=&quot;text-align: left;&quot;&gt;&lt;span style=&quot;background-color: initial;&quot;&gt;- marqId: string&lt;/span&gt;&lt;/div&gt;&lt;div style=&quot;text-align: left;&quot;&gt;&lt;span style=&quot;background-color: initial;&quot;&gt;- title: string&lt;/span&gt;&lt;/div&gt;&lt;div style=&quot;text-align: left;&quot;&gt;&lt;span style=&quot;background-color: initial;&quot;&gt;- desc: string&lt;/span&gt;&lt;/div&gt;&lt;div style=&quot;text-align: left;&quot;&gt;&lt;span style=&quot;background-color: initial;&quot;&gt;- datDeb: string&lt;/span&gt;&lt;/div&gt;&lt;div style=&quot;text-align: left;&quot;&gt;&lt;span style=&quot;background-color: initial;&quot;&gt;- datFin: string&lt;/span&gt;&lt;/div&gt;&lt;div style=&quot;text-align: left;&quot;&gt;&lt;span style=&quot;background-color: initial;&quot;&gt;- contType: string&lt;/span&gt;&lt;/div&gt;&lt;div style=&quot;text-align: left;&quot;&gt;&lt;span style=&quot;background-color: initial;&quot;&gt;- term: string&lt;/span&gt;&lt;/div&gt;&lt;div style=&quot;text-align: left;&quot;&gt;&lt;span style=&quot;background-color: initial;&quot;&gt;- image: string&lt;/span&gt;&lt;/div&gt;&lt;div style=&quot;text-align: left;&quot;&gt;&lt;span style=&quot;background-color: initial;&quot;&gt;- purp: string&lt;/span&gt;&lt;/div&gt;&lt;div style=&quot;text-align: left;&quot;&gt;&lt;span style=&quot;background-color: initial;&quot;&gt;- requir: string&lt;/span&gt;&lt;/div&gt;" style="shape=partialRectangle;html=1;whiteSpace=wrap;connectable=0;overflow=hidden;fillColor=none;top=0;left=0;bottom=0;right=0;pointerEvents=1;fontColor=#000000;" parent="12" vertex="1">
                    <mxGeometry width="116" height="177" as="geometry">
                        <mxRectangle width="116" height="177" as="alternateBounds"/>
                    </mxGeometry>
                </mxCell>
                <mxCell id="14" value="" style="shape=tableRow;horizontal=0;startSize=0;swimlaneHead=0;swimlaneBody=0;top=0;left=0;bottom=0;right=0;collapsible=0;dropTarget=0;fillColor=none;points=[[0,0.5],[1,0.5]];portConstraint=eastwest;" parent="9" vertex="1">
                    <mxGeometry y="206" width="116" height="60" as="geometry"/>
                </mxCell>
                <mxCell id="15" value="&amp;nbsp;+ create()&lt;br&gt;&amp;nbsp;+ read ()&lt;br&gt;&amp;nbsp;+ update ()&lt;br&gt;&amp;nbsp;+ delete()" style="shape=partialRectangle;html=1;whiteSpace=wrap;connectable=0;overflow=hidden;fillColor=none;top=0;left=0;bottom=0;right=0;pointerEvents=1;fontColor=#000000;align=left;" parent="14" vertex="1">
                    <mxGeometry width="116" height="60" as="geometry">
                        <mxRectangle width="116" height="60" as="alternateBounds"/>
                    </mxGeometry>
                </mxCell>
                <mxCell id="16" value="" style="shape=table;startSize=0;container=1;collapsible=0;childLayout=tableLayout;strokeColor=#000000;fillColor=#3399FF;strokeWidth=1;" parent="1" vertex="1">
                    <mxGeometry x="377" y="531" width="116" height="254.84384155273438" as="geometry"/>
                </mxCell>
                <mxCell id="17" value="" style="shape=tableRow;horizontal=0;startSize=0;swimlaneHead=0;swimlaneBody=0;top=0;left=0;bottom=0;right=0;collapsible=0;dropTarget=0;fillColor=none;points=[[0,0.5],[1,0.5]];portConstraint=eastwest;" parent="16" vertex="1">
                    <mxGeometry width="116" height="29" as="geometry"/>
                </mxCell>
                <mxCell id="18" value="&lt;font color=&quot;#000000&quot;&gt;Influenceur&lt;/font&gt;" style="shape=partialRectangle;html=1;whiteSpace=wrap;connectable=0;overflow=hidden;fillColor=none;top=0;left=0;bottom=0;right=0;pointerEvents=1;align=center;" parent="17" vertex="1">
                    <mxGeometry width="116" height="29" as="geometry">
                        <mxRectangle width="116" height="29" as="alternateBounds"/>
                    </mxGeometry>
                </mxCell>
                <mxCell id="19" value="" style="shape=tableRow;horizontal=0;startSize=0;swimlaneHead=0;swimlaneBody=0;top=0;left=0;bottom=0;right=0;collapsible=0;dropTarget=0;fillColor=none;points=[[0,0.5],[1,0.5]];portConstraint=eastwest;" parent="16" vertex="1">
                    <mxGeometry y="29" width="116" height="166" as="geometry"/>
                </mxCell>
                <mxCell id="20" value="&lt;div style=&quot;text-align: left;&quot;&gt;&lt;span style=&quot;background-color: initial;&quot;&gt;- influId: string&lt;/span&gt;&lt;/div&gt;&lt;div style=&quot;text-align: left;&quot;&gt;&lt;span style=&quot;background-color: initial;&quot;&gt;- lastName: string&lt;/span&gt;&lt;/div&gt;&lt;div style=&quot;text-align: left;&quot;&gt;&lt;span style=&quot;background-color: initial;&quot;&gt;- firstName: string&lt;/span&gt;&lt;/div&gt;&lt;div style=&quot;text-align: left;&quot;&gt;&lt;span style=&quot;background-color: initial;&quot;&gt;- sexe: string&lt;/span&gt;&lt;/div&gt;&lt;div style=&quot;text-align: left;&quot;&gt;&lt;span style=&quot;background-color: initial;&quot;&gt;- birth: string&lt;/span&gt;&lt;/div&gt;&lt;div style=&quot;text-align: left;&quot;&gt;&lt;span style=&quot;background-color: initial;&quot;&gt;- phone: int&lt;/span&gt;&lt;/div&gt;&lt;div style=&quot;text-align: left;&quot;&gt;&lt;span style=&quot;background-color: initial;&quot;&gt;- email: string&lt;/span&gt;&lt;/div&gt;&lt;div style=&quot;text-align: left;&quot;&gt;&lt;span style=&quot;background-color: initial;&quot;&gt;- contType: string&lt;/span&gt;&lt;/div&gt;&lt;div style=&quot;text-align: left;&quot;&gt;&lt;span style=&quot;background-color: initial;&quot;&gt;- adress: string&lt;/span&gt;&lt;/div&gt;&lt;div style=&quot;text-align: left;&quot;&gt;&lt;span style=&quot;background-color: initial;&quot;&gt;- image: string&lt;br&gt;&lt;/span&gt;&lt;/div&gt;" style="shape=partialRectangle;html=1;whiteSpace=wrap;connectable=0;overflow=hidden;fillColor=none;top=0;left=0;bottom=0;right=0;pointerEvents=1;fontColor=#000000;" parent="19" vertex="1">
                    <mxGeometry width="116" height="166" as="geometry">
                        <mxRectangle width="116" height="166" as="alternateBounds"/>
                    </mxGeometry>
                </mxCell>
                <mxCell id="21" value="" style="shape=tableRow;horizontal=0;startSize=0;swimlaneHead=0;swimlaneBody=0;top=0;left=0;bottom=0;right=0;collapsible=0;dropTarget=0;fillColor=none;points=[[0,0.5],[1,0.5]];portConstraint=eastwest;" parent="16" vertex="1">
                    <mxGeometry y="195" width="116" height="60" as="geometry"/>
                </mxCell>
                <mxCell id="22" value="&amp;nbsp;+ create()&lt;br&gt;&amp;nbsp;+ read ()&lt;br&gt;&amp;nbsp;+ update ()&lt;br&gt;&amp;nbsp;+ delete()" style="shape=partialRectangle;html=1;whiteSpace=wrap;connectable=0;overflow=hidden;fillColor=none;top=0;left=0;bottom=0;right=0;pointerEvents=1;fontColor=#000000;align=left;" parent="21" vertex="1">
                    <mxGeometry width="116" height="60" as="geometry">
                        <mxRectangle width="116" height="60" as="alternateBounds"/>
                    </mxGeometry>
                </mxCell>
                <mxCell id="23" value="" style="shape=table;startSize=0;container=1;collapsible=0;childLayout=tableLayout;strokeColor=#050505;fillColor=#3399FF;" parent="1" vertex="1">
                    <mxGeometry x="948" y="522" width="116" height="169.2093341533947" as="geometry"/>
                </mxCell>
                <mxCell id="24" value="" style="shape=tableRow;horizontal=0;startSize=0;swimlaneHead=0;swimlaneBody=0;top=0;left=0;bottom=0;right=0;collapsible=0;dropTarget=0;fillColor=none;points=[[0,0.5],[1,0.5]];portConstraint=eastwest;" parent="23" vertex="1">
                    <mxGeometry width="116" height="29" as="geometry"/>
                </mxCell>
                <mxCell id="25" value="&lt;font color=&quot;#000000&quot;&gt;Chat&lt;/font&gt;" style="shape=partialRectangle;html=1;whiteSpace=wrap;connectable=0;overflow=hidden;fillColor=none;top=0;left=0;bottom=0;right=0;pointerEvents=1;align=center;" parent="24" vertex="1">
                    <mxGeometry width="116" height="29" as="geometry">
                        <mxRectangle width="116" height="29" as="alternateBounds"/>
                    </mxGeometry>
                </mxCell>
                <mxCell id="26" value="" style="shape=tableRow;horizontal=0;startSize=0;swimlaneHead=0;swimlaneBody=0;top=0;left=0;bottom=0;right=0;collapsible=0;dropTarget=0;fillColor=none;points=[[0,0.5],[1,0.5]];portConstraint=eastwest;" parent="23" vertex="1">
                    <mxGeometry y="29" width="116" height="80" as="geometry"/>
                </mxCell>
                <mxCell id="27" value="&lt;div style=&quot;text-align: left;&quot;&gt;- chatId: string&lt;br&gt;&lt;/div&gt;&lt;div style=&quot;text-align: left;&quot;&gt;- marqId: string&lt;span style=&quot;background-color: initial;&quot;&gt;&lt;br&gt;&lt;/span&gt;&lt;/div&gt;&lt;div style=&quot;text-align: left;&quot;&gt;&lt;span style=&quot;background-color: initial;&quot;&gt;- influId: string&lt;/span&gt;&lt;/div&gt;&lt;div style=&quot;text-align: left;&quot;&gt;&lt;span style=&quot;background-color: initial;&quot;&gt;- message: string&lt;/span&gt;&lt;/div&gt;" style="shape=partialRectangle;html=1;whiteSpace=wrap;connectable=0;overflow=hidden;fillColor=none;top=0;left=0;bottom=0;right=0;pointerEvents=1;fontColor=#000000;" parent="26" vertex="1">
                    <mxGeometry width="116" height="80" as="geometry">
                        <mxRectangle width="116" height="80" as="alternateBounds"/>
                    </mxGeometry>
                </mxCell>
                <mxCell id="28" value="" style="shape=tableRow;horizontal=0;startSize=0;swimlaneHead=0;swimlaneBody=0;top=0;left=0;bottom=0;right=0;collapsible=0;dropTarget=0;fillColor=none;points=[[0,0.5],[1,0.5]];portConstraint=eastwest;" parent="23" vertex="1">
                    <mxGeometry y="109" width="116" height="60" as="geometry"/>
                </mxCell>
                <mxCell id="29" value="&amp;nbsp;+ create()&lt;br&gt;&amp;nbsp;+ read ()&lt;br&gt;&amp;nbsp;+ delete()" style="shape=partialRectangle;html=1;whiteSpace=wrap;connectable=0;overflow=hidden;fillColor=none;top=0;left=0;bottom=0;right=0;pointerEvents=1;fontColor=#000000;align=left;" parent="28" vertex="1">
                    <mxGeometry width="116" height="60" as="geometry">
                        <mxRectangle width="116" height="60" as="alternateBounds"/>
                    </mxGeometry>
                </mxCell>
                <mxCell id="36" value="" style="endArrow=none;html=1;fontColor=#000000;labelBackgroundColor=none;strokeColor=#000000;entryX=0.009;entryY=0.548;entryDx=0;entryDy=0;entryPerimeter=0;" parent="1" target="12" edge="1">
                    <mxGeometry width="50" height="50" relative="1" as="geometry">
                        <mxPoint x="467" y="151" as="sourcePoint"/>
                        <mxPoint x="715" y="151" as="targetPoint"/>
                    </mxGeometry>
                </mxCell>
                <mxCell id="37" value="" style="endArrow=none;html=1;fontColor=#000000;labelBackgroundColor=none;strokeColor=#000000;exitX=1.014;exitY=0.554;exitDx=0;exitDy=0;exitPerimeter=0;" parent="1" source="12" edge="1">
                    <mxGeometry width="50" height="50" relative="1" as="geometry">
                        <mxPoint x="887" y="153.61" as="sourcePoint"/>
                        <mxPoint x="1005" y="154" as="targetPoint"/>
                    </mxGeometry>
                </mxCell>
                <mxCell id="40" value="" style="endArrow=none;html=1;fontColor=#000000;labelBackgroundColor=none;strokeColor=#000000;entryX=0.472;entryY=0.001;entryDx=0;entryDy=0;entryPerimeter=0;" parent="1" target="24" edge="1">
                    <mxGeometry width="50" height="50" relative="1" as="geometry">
                        <mxPoint x="1005" y="153" as="sourcePoint"/>
                        <mxPoint x="1004" y="374" as="targetPoint"/>
                    </mxGeometry>
                </mxCell>
                <mxCell id="41" value="" style="endArrow=none;html=1;fontColor=#000000;labelBackgroundColor=none;strokeColor=#000000;entryX=-0.018;entryY=0.365;entryDx=0;entryDy=0;entryPerimeter=0;exitX=1;exitY=0.566;exitDx=0;exitDy=0;exitPerimeter=0;" parent="1" source="19" target="28" edge="1">
                    <mxGeometry width="50" height="50" relative="1" as="geometry">
                        <mxPoint x="493" y="613" as="sourcePoint"/>
                        <mxPoint x="792" y="613" as="targetPoint"/>
                    </mxGeometry>
                </mxCell>
                <mxCell id="43" value="" style="endArrow=none;html=1;fontColor=#000000;labelBackgroundColor=none;strokeColor=#000000;exitX=0.879;exitY=1.009;exitDx=0;exitDy=0;exitPerimeter=0;entryX=0.664;entryY=0.021;entryDx=0;entryDy=0;entryPerimeter=0;" parent="1" source="2" edge="1" target="17">
                    <mxGeometry width="50" height="50" relative="1" as="geometry">
                        <mxPoint x="444" y="277" as="sourcePoint"/>
                        <mxPoint x="454" y="527" as="targetPoint"/>
                        <Array as="points"/>
                    </mxGeometry>
                </mxCell>
                <mxCell id="44" value="1" style="whiteSpace=wrap;html=1;aspect=fixed;strokeColor=#FFFFFF;fontColor=#000000;fillColor=#FFFFFF;" parent="1" vertex="1">
                    <mxGeometry x="476" y="124" width="19" height="19" as="geometry"/>
                </mxCell>
                <mxCell id="45" value="*" style="whiteSpace=wrap;html=1;aspect=fixed;strokeColor=#FFFFFF;fontColor=#000000;fillColor=#FFFFFF;fontSize=14;" parent="1" vertex="1">
                    <mxGeometry x="698" y="124" width="19" height="19" as="geometry"/>
                </mxCell>
                <mxCell id="48" value="*" style="whiteSpace=wrap;html=1;aspect=fixed;strokeColor=#FFFFFF;fontColor=#000000;fillColor=#FFFFFF;fontSize=14;" parent="1" vertex="1">
                    <mxGeometry x="457" y="281" width="19" height="19" as="geometry"/>
                </mxCell>
                <mxCell id="49" value="*" style="whiteSpace=wrap;html=1;aspect=fixed;strokeColor=#FFFFFF;fontColor=#000000;fillColor=#FFFFFF;fontSize=14;" parent="1" vertex="1">
                    <mxGeometry x="459" y="509" width="19" height="19" as="geometry"/>
                </mxCell>
                <mxCell id="50" value="*" style="whiteSpace=wrap;html=1;aspect=fixed;strokeColor=#FFFFFF;fontColor=#000000;fillColor=#FFFFFF;fontSize=14;" parent="1" vertex="1">
                    <mxGeometry x="1011" y="496" width="19" height="19" as="geometry"/>
                </mxCell>
                <mxCell id="51" value="1" style="whiteSpace=wrap;html=1;aspect=fixed;strokeColor=#FFFFFF;fontColor=#000000;fillColor=#FFFFFF;" parent="1" vertex="1">
                    <mxGeometry x="846" y="124" width="19" height="19" as="geometry"/>
                </mxCell>
                <mxCell id="52" value="1" style="whiteSpace=wrap;html=1;aspect=fixed;strokeColor=#FFFFFF;fontColor=#000000;fillColor=#FFFFFF;" parent="1" vertex="1">
                    <mxGeometry x="495" y="629" width="19" height="19" as="geometry"/>
                </mxCell>
                <mxCell id="53" value="0..&lt;font style=&quot;font-size: 14px;&quot;&gt;*&lt;/font&gt;" style="whiteSpace=wrap;html=1;aspect=fixed;strokeColor=#FFFFFF;fontColor=#000000;fillColor=#FFFFFF;" parent="1" vertex="1">
                    <mxGeometry x="921" y="629" width="19" height="19" as="geometry"/>
                </mxCell>
                <mxCell id="66" value="" style="shape=table;startSize=0;container=1;collapsible=0;childLayout=tableLayout;strokeColor=#1A1A1A;fontSize=13;fontColor=#000000;fillColor=#3399FF;" parent="1" vertex="1">
                    <mxGeometry x="542" y="270" width="105" height="166" as="geometry"/>
                </mxCell>
                <mxCell id="67" value="" style="shape=tableRow;horizontal=0;startSize=0;swimlaneHead=0;swimlaneBody=0;top=0;left=0;bottom=0;right=0;collapsible=0;dropTarget=0;fillColor=none;points=[[0,0.5],[1,0.5]];portConstraint=eastwest;strokeColor=#1A1A1A;fontSize=13;fontColor=#000000;" parent="66" vertex="1">
                    <mxGeometry width="105" height="31" as="geometry"/>
                </mxCell>
                <mxCell id="68" value="Noter" style="shape=partialRectangle;html=1;whiteSpace=wrap;connectable=0;overflow=hidden;fillColor=none;top=0;left=0;bottom=0;right=0;pointerEvents=1;strokeColor=#1A1A1A;fontSize=13;fontColor=#000000;" parent="67" vertex="1">
                    <mxGeometry width="105" height="31" as="geometry">
                        <mxRectangle width="105" height="31" as="alternateBounds"/>
                    </mxGeometry>
                </mxCell>
                <mxCell id="69" value="" style="shape=tableRow;horizontal=0;startSize=0;swimlaneHead=0;swimlaneBody=0;top=0;left=0;bottom=0;right=0;collapsible=0;dropTarget=0;fillColor=none;points=[[0,0.5],[1,0.5]];portConstraint=eastwest;strokeColor=#1A1A1A;fontSize=13;fontColor=#000000;" parent="66" vertex="1">
                    <mxGeometry y="31" width="105" height="84" as="geometry"/>
                </mxCell>
                <mxCell id="70" value="&amp;nbsp;- noteId: string&lt;br&gt;&amp;nbsp;- marqId: string&lt;br&gt;&amp;nbsp;- influId: string&lt;br&gt;&amp;nbsp;- note: string" style="shape=partialRectangle;html=1;whiteSpace=wrap;connectable=0;overflow=hidden;fillColor=none;top=0;left=0;bottom=0;right=0;pointerEvents=1;strokeColor=#1A1A1A;fontSize=13;fontColor=#000000;align=left;" parent="69" vertex="1">
                    <mxGeometry width="105" height="84" as="geometry">
                        <mxRectangle width="105" height="84" as="alternateBounds"/>
                    </mxGeometry>
                </mxCell>
                <mxCell id="71" value="" style="shape=tableRow;horizontal=0;startSize=0;swimlaneHead=0;swimlaneBody=0;top=0;left=0;bottom=0;right=0;collapsible=0;dropTarget=0;fillColor=none;points=[[0,0.5],[1,0.5]];portConstraint=eastwest;strokeColor=#1A1A1A;fontSize=13;fontColor=#000000;" parent="66" vertex="1">
                    <mxGeometry y="115" width="105" height="51" as="geometry"/>
                </mxCell>
                <mxCell id="72" value="&lt;span style=&quot;font-size: 12px;&quot;&gt;&amp;nbsp;+ create()&lt;br&gt;&lt;/span&gt;&lt;span style=&quot;font-size: 12px;&quot;&gt;&amp;nbsp;+ read ()&lt;/span&gt;&lt;br style=&quot;font-size: 12px;&quot;&gt;&lt;span style=&quot;font-size: 12px;&quot;&gt;&amp;nbsp;+ update ()&lt;/span&gt;" style="shape=partialRectangle;html=1;whiteSpace=wrap;connectable=0;overflow=hidden;fillColor=none;top=0;left=0;bottom=0;right=0;pointerEvents=1;strokeColor=#1A1A1A;fontSize=13;fontColor=#000000;align=left;" parent="71" vertex="1">
                    <mxGeometry width="105" height="51" as="geometry">
                        <mxRectangle width="105" height="51" as="alternateBounds"/>
                    </mxGeometry>
                </mxCell>
                <mxCell id="73" value="" style="endArrow=none;html=1;fontColor=#000000;labelBackgroundColor=none;strokeColor=#000000;" parent="1" edge="1">
                    <mxGeometry width="50" height="50" relative="1" as="geometry">
                        <mxPoint x="493" y="576" as="sourcePoint"/>
                        <mxPoint x="764" y="576" as="targetPoint"/>
                    </mxGeometry>
                </mxCell>
                <mxCell id="74" value="" style="endArrow=none;html=1;fontColor=#000000;labelBackgroundColor=none;strokeColor=#000000;" parent="1" edge="1">
                    <mxGeometry width="50" height="50" relative="1" as="geometry">
                        <mxPoint x="766.12" y="291.28" as="sourcePoint"/>
                        <mxPoint x="764" y="576" as="targetPoint"/>
                    </mxGeometry>
                </mxCell>
                <mxCell id="76" value="" style="endArrow=none;dashed=1;html=1;labelBackgroundColor=none;strokeColor=#000000;fontSize=13;fontColor=#000000;" parent="1" edge="1">
                    <mxGeometry width="50" height="50" relative="1" as="geometry">
                        <mxPoint x="766" y="407" as="sourcePoint"/>
                        <mxPoint x="847" y="407" as="targetPoint"/>
                    </mxGeometry>
                </mxCell>
                <mxCell id="77" value="" style="shape=table;startSize=0;container=1;collapsible=0;childLayout=tableLayout;strokeColor=#1A1A1A;fontSize=13;fontColor=#000000;fillColor=#3399FF;" parent="1" vertex="1">
                    <mxGeometry x="846" y="337" width="113" height="151" as="geometry"/>
                </mxCell>
                <mxCell id="78" value="" style="shape=tableRow;horizontal=0;startSize=0;swimlaneHead=0;swimlaneBody=0;top=0;left=0;bottom=0;right=0;collapsible=0;dropTarget=0;fillColor=none;points=[[0,0.5],[1,0.5]];portConstraint=eastwest;strokeColor=#1A1A1A;fontSize=13;fontColor=#000000;" parent="77" vertex="1">
                    <mxGeometry width="113" height="30" as="geometry"/>
                </mxCell>
                <mxCell id="79" value="Postuler" style="shape=partialRectangle;html=1;whiteSpace=wrap;connectable=0;overflow=hidden;fillColor=none;top=0;left=0;bottom=0;right=0;pointerEvents=1;strokeColor=#1A1A1A;fontSize=13;fontColor=#000000;" parent="78" vertex="1">
                    <mxGeometry width="113" height="30" as="geometry">
                        <mxRectangle width="113" height="30" as="alternateBounds"/>
                    </mxGeometry>
                </mxCell>
                <mxCell id="80" value="" style="shape=tableRow;horizontal=0;startSize=0;swimlaneHead=0;swimlaneBody=0;top=0;left=0;bottom=0;right=0;collapsible=0;dropTarget=0;fillColor=none;points=[[0,0.5],[1,0.5]];portConstraint=eastwest;strokeColor=#1A1A1A;fontSize=13;fontColor=#000000;" parent="77" vertex="1">
                    <mxGeometry y="30" width="113" height="70" as="geometry"/>
                </mxCell>
                <mxCell id="81" value="&amp;nbsp;- postId: string&lt;br&gt;&amp;nbsp;- datePost: string&lt;br&gt;&amp;nbsp;- campId: string&lt;br&gt;&amp;nbsp;- influId: string" style="shape=partialRectangle;html=1;whiteSpace=wrap;connectable=0;overflow=hidden;fillColor=none;top=0;left=0;bottom=0;right=0;pointerEvents=1;strokeColor=#1A1A1A;fontSize=13;fontColor=#000000;align=left;" parent="80" vertex="1">
                    <mxGeometry width="113" height="70" as="geometry">
                        <mxRectangle width="113" height="70" as="alternateBounds"/>
                    </mxGeometry>
                </mxCell>
                <mxCell id="82" value="" style="shape=tableRow;horizontal=0;startSize=0;swimlaneHead=0;swimlaneBody=0;top=0;left=0;bottom=0;right=0;collapsible=0;dropTarget=0;fillColor=none;points=[[0,0.5],[1,0.5]];portConstraint=eastwest;strokeColor=#1A1A1A;fontSize=13;fontColor=#000000;" parent="77" vertex="1">
                    <mxGeometry y="100" width="113" height="51" as="geometry"/>
                </mxCell>
                <mxCell id="83" value="&amp;nbsp;+ create()&lt;br&gt;&amp;nbsp;+ read ()" style="shape=partialRectangle;html=1;whiteSpace=wrap;connectable=0;overflow=hidden;fillColor=none;top=0;left=0;bottom=0;right=0;pointerEvents=1;strokeColor=#1A1A1A;fontSize=13;fontColor=#000000;align=left;" parent="82" vertex="1">
                    <mxGeometry width="113" height="51" as="geometry">
                        <mxRectangle width="113" height="51" as="alternateBounds"/>
                    </mxGeometry>
                </mxCell>
                <mxCell id="84" value="" style="endArrow=none;dashed=1;html=1;labelBackgroundColor=none;strokeColor=#000000;fontSize=13;fontColor=#000000;entryX=0.01;entryY=0.672;entryDx=0;entryDy=0;entryPerimeter=0;" parent="1" edge="1" target="69">
                    <mxGeometry width="50" height="50" relative="1" as="geometry">
                        <mxPoint x="454" y="357" as="sourcePoint"/>
                        <mxPoint x="529" y="403" as="targetPoint"/>
                    </mxGeometry>
                </mxCell>
                <mxCell id="85" value="" style="shape=table;startSize=0;container=1;collapsible=0;childLayout=tableLayout;strokeColor=#000000;fontSize=13;fontColor=#000000;fillColor=#3399FF;" parent="1" vertex="1">
                    <mxGeometry x="37" y="274" width="119" height="165" as="geometry"/>
                </mxCell>
                <mxCell id="86" value="" style="shape=tableRow;horizontal=0;startSize=0;swimlaneHead=0;swimlaneBody=0;top=0;left=0;bottom=0;right=0;collapsible=0;dropTarget=0;fillColor=none;points=[[0,0.5],[1,0.5]];portConstraint=eastwest;strokeColor=#1A1A1A;fontSize=13;fontColor=#000000;" parent="85" vertex="1">
                    <mxGeometry width="119" height="43" as="geometry"/>
                </mxCell>
                <mxCell id="87" value="User" style="shape=partialRectangle;html=1;whiteSpace=wrap;connectable=0;overflow=hidden;fillColor=none;top=0;left=0;bottom=0;right=0;pointerEvents=1;strokeColor=#1A1A1A;fontSize=13;fontColor=#000000;" parent="86" vertex="1">
                    <mxGeometry width="119" height="43" as="geometry">
                        <mxRectangle width="119" height="43" as="alternateBounds"/>
                    </mxGeometry>
                </mxCell>
                <mxCell id="88" value="" style="shape=tableRow;horizontal=0;startSize=0;swimlaneHead=0;swimlaneBody=0;top=0;left=0;bottom=0;right=0;collapsible=0;dropTarget=0;fillColor=none;points=[[0,0.5],[1,0.5]];portConstraint=eastwest;strokeColor=#1A1A1A;fontSize=13;fontColor=#000000;" parent="85" vertex="1">
                    <mxGeometry y="43" width="119" height="54" as="geometry"/>
                </mxCell>
                <mxCell id="89" value="&amp;nbsp;- userId: string&lt;br&gt;&amp;nbsp;- userType: string" style="shape=partialRectangle;html=1;whiteSpace=wrap;connectable=0;overflow=hidden;fillColor=none;top=0;left=0;bottom=0;right=0;pointerEvents=1;strokeColor=#1A1A1A;fontSize=13;fontColor=#000000;align=left;" parent="88" vertex="1">
                    <mxGeometry width="119" height="54" as="geometry">
                        <mxRectangle width="119" height="54" as="alternateBounds"/>
                    </mxGeometry>
                </mxCell>
                <mxCell id="90" value="" style="shape=tableRow;horizontal=0;startSize=0;swimlaneHead=0;swimlaneBody=0;top=0;left=0;bottom=0;right=0;collapsible=0;dropTarget=0;fillColor=none;points=[[0,0.5],[1,0.5]];portConstraint=eastwest;strokeColor=#1A1A1A;fontSize=13;fontColor=#000000;" parent="85" vertex="1">
                    <mxGeometry y="97" width="119" height="68" as="geometry"/>
                </mxCell>
                <mxCell id="91" value="&lt;span style=&quot;font-size: 12px;&quot;&gt;&amp;nbsp;+ create()&lt;/span&gt;&lt;br style=&quot;font-size: 12px;&quot;&gt;&lt;span style=&quot;font-size: 12px;&quot;&gt;&amp;nbsp;+ read ()&lt;/span&gt;&lt;br style=&quot;font-size: 12px;&quot;&gt;&lt;span style=&quot;font-size: 12px;&quot;&gt;&amp;nbsp;+ update ()&lt;/span&gt;&lt;br style=&quot;font-size: 12px;&quot;&gt;&lt;span style=&quot;font-size: 12px;&quot;&gt;&amp;nbsp;+ delete()&lt;/span&gt;" style="shape=partialRectangle;html=1;whiteSpace=wrap;connectable=0;overflow=hidden;fillColor=none;top=0;left=0;bottom=0;right=0;pointerEvents=1;strokeColor=#1A1A1A;fontSize=13;fontColor=#000000;align=left;" parent="90" vertex="1">
                    <mxGeometry width="119" height="68" as="geometry">
                        <mxRectangle width="119" height="68" as="alternateBounds"/>
                    </mxGeometry>
                </mxCell>
                <mxCell id="92" value="" style="endArrow=none;html=1;fontColor=#000000;labelBackgroundColor=none;strokeColor=#000000;" parent="1" edge="1">
                    <mxGeometry width="50" height="50" relative="1" as="geometry">
                        <mxPoint x="93" y="148" as="sourcePoint"/>
                        <mxPoint x="351.9960000000002" y="148.0019999999999" as="targetPoint"/>
                    </mxGeometry>
                </mxCell>
                <mxCell id="96" value="" style="triangle;whiteSpace=wrap;html=1;strokeColor=#1A1A1A;fontSize=13;fontColor=#000000;fillColor=#FFFFFF;direction=south;" parent="1" vertex="1">
                    <mxGeometry x="86" y="265" width="16" height="9" as="geometry"/>
                </mxCell>
                <mxCell id="101" value="" style="endArrow=none;html=1;fontColor=#000000;labelBackgroundColor=none;strokeColor=#000000;" parent="1" edge="1">
                    <mxGeometry width="50" height="50" relative="1" as="geometry">
                        <mxPoint x="93.5" y="147" as="sourcePoint"/>
                        <mxPoint x="93.5" y="265" as="targetPoint"/>
                    </mxGeometry>
                </mxCell>
                <mxCell id="110" value="" style="endArrow=none;html=1;fontColor=#000000;labelBackgroundColor=none;strokeColor=#000000;exitX=0;exitY=0.5;exitDx=0;exitDy=0;" parent="1" edge="1" source="115">
                    <mxGeometry width="50" height="50" relative="1" as="geometry">
                        <mxPoint x="178" y="450" as="sourcePoint"/>
                        <mxPoint x="94" y="584" as="targetPoint"/>
                    </mxGeometry>
                </mxCell>
                <mxCell id="111" value="" style="endArrow=none;html=1;fontColor=#000000;labelBackgroundColor=none;strokeColor=#000000;entryX=-0.003;entryY=0.149;entryDx=0;entryDy=0;entryPerimeter=0;" parent="1" target="19" edge="1">
                    <mxGeometry width="50" height="50" relative="1" as="geometry">
                        <mxPoint x="94" y="585" as="sourcePoint"/>
                        <mxPoint x="138" y="737" as="targetPoint"/>
                    </mxGeometry>
                </mxCell>
                <mxCell id="115" value="" style="triangle;whiteSpace=wrap;html=1;strokeColor=#1A1A1A;fontSize=13;fontColor=#000000;fillColor=#FFFFFF;direction=north;" parent="1" vertex="1">
                    <mxGeometry x="86" y="439" width="16" height="9" as="geometry"/>
                </mxCell>
                <mxCell id="118" value="*" style="whiteSpace=wrap;html=1;aspect=fixed;strokeColor=#FFFFFF;fontColor=#000000;fillColor=#FFFFFF;fontSize=14;" parent="1" vertex="1">
                    <mxGeometry x="498" y="553" width="19" height="19" as="geometry"/>
                </mxCell>
                <mxCell id="119" value="*" style="whiteSpace=wrap;html=1;aspect=fixed;strokeColor=#FFFFFF;fontColor=#000000;fillColor=#FFFFFF;fontSize=14;" parent="1" vertex="1">
                    <mxGeometry x="741" y="298" width="19" height="19" as="geometry"/>
                </mxCell>
                <mxCell id="121" value="" style="endArrow=none;html=1;fontColor=#000000;labelBackgroundColor=none;strokeColor=#000000;exitX=0.879;exitY=1.009;exitDx=0;exitDy=0;exitPerimeter=0;entryX=0.664;entryY=0.021;entryDx=0;entryDy=0;entryPerimeter=0;" edge="1" parent="1">
                    <mxGeometry width="50" height="50" relative="1" as="geometry">
                        <mxPoint x="395" y="276.4" as="sourcePoint"/>
                        <mxPoint x="395.05999999999995" y="530.9992759770931" as="targetPoint"/>
                        <Array as="points"/>
                    </mxGeometry>
                </mxCell>
                <mxCell id="122" value="" style="endArrow=none;dashed=1;html=1;labelBackgroundColor=none;strokeColor=#000000;fontSize=13;fontColor=#000000;exitX=1;exitY=0.5;exitDx=0;exitDy=0;" edge="1" parent="1" source="126">
                    <mxGeometry width="50" height="50" relative="1" as="geometry">
                        <mxPoint x="308" y="426" as="sourcePoint"/>
                        <mxPoint x="394" y="404" as="targetPoint"/>
                    </mxGeometry>
                </mxCell>
                <mxCell id="123" value="" style="shape=table;startSize=0;container=1;collapsible=0;childLayout=tableLayout;strokeColor=#1A1A1A;fontSize=13;fontColor=#000000;fillColor=#3399FF;" vertex="1" parent="1">
                    <mxGeometry x="219" y="331" width="115" height="166" as="geometry"/>
                </mxCell>
                <mxCell id="124" value="" style="shape=tableRow;horizontal=0;startSize=0;swimlaneHead=0;swimlaneBody=0;top=0;left=0;bottom=0;right=0;collapsible=0;dropTarget=0;fillColor=none;points=[[0,0.5],[1,0.5]];portConstraint=eastwest;strokeColor=#1A1A1A;fontSize=13;fontColor=#000000;" vertex="1" parent="123">
                    <mxGeometry width="115" height="31" as="geometry"/>
                </mxCell>
                <mxCell id="125" value="Contrat" style="shape=partialRectangle;html=1;whiteSpace=wrap;connectable=0;overflow=hidden;fillColor=none;top=0;left=0;bottom=0;right=0;pointerEvents=1;strokeColor=#1A1A1A;fontSize=13;fontColor=#000000;" vertex="1" parent="124">
                    <mxGeometry width="115" height="31" as="geometry">
                        <mxRectangle width="115" height="31" as="alternateBounds"/>
                    </mxGeometry>
                </mxCell>
                <mxCell id="126" value="" style="shape=tableRow;horizontal=0;startSize=0;swimlaneHead=0;swimlaneBody=0;top=0;left=0;bottom=0;right=0;collapsible=0;dropTarget=0;fillColor=none;points=[[0,0.5],[1,0.5]];portConstraint=eastwest;strokeColor=#1A1A1A;fontSize=13;fontColor=#000000;" vertex="1" parent="123">
                    <mxGeometry y="31" width="115" height="84" as="geometry"/>
                </mxCell>
                <mxCell id="127" value="&amp;nbsp;- contId: string&lt;br&gt;&amp;nbsp;- marqpId: string&lt;br&gt;&amp;nbsp;- influId: string&lt;br&gt;&amp;nbsp;- contTerm: string" style="shape=partialRectangle;html=1;whiteSpace=wrap;connectable=0;overflow=hidden;fillColor=none;top=0;left=0;bottom=0;right=0;pointerEvents=1;strokeColor=#1A1A1A;fontSize=13;fontColor=#000000;align=left;" vertex="1" parent="126">
                    <mxGeometry width="115" height="84" as="geometry">
                        <mxRectangle width="115" height="84" as="alternateBounds"/>
                    </mxGeometry>
                </mxCell>
                <mxCell id="128" value="" style="shape=tableRow;horizontal=0;startSize=0;swimlaneHead=0;swimlaneBody=0;top=0;left=0;bottom=0;right=0;collapsible=0;dropTarget=0;fillColor=none;points=[[0,0.5],[1,0.5]];portConstraint=eastwest;strokeColor=#1A1A1A;fontSize=13;fontColor=#000000;" vertex="1" parent="123">
                    <mxGeometry y="115" width="115" height="51" as="geometry"/>
                </mxCell>
                <mxCell id="129" value="&lt;span style=&quot;font-size: 12px;&quot;&gt;&amp;nbsp;+ create()&lt;br&gt;&lt;/span&gt;&lt;span style=&quot;font-size: 12px;&quot;&gt;&amp;nbsp;+ read ()&lt;/span&gt;&lt;br style=&quot;font-size: 12px;&quot;&gt;&lt;span style=&quot;font-size: 12px;&quot;&gt;&amp;nbsp;+ update ()&lt;/span&gt;" style="shape=partialRectangle;html=1;whiteSpace=wrap;connectable=0;overflow=hidden;fillColor=none;top=0;left=0;bottom=0;right=0;pointerEvents=1;strokeColor=#1A1A1A;fontSize=13;fontColor=#000000;align=left;" vertex="1" parent="128">
                    <mxGeometry width="115" height="51" as="geometry">
                        <mxRectangle width="115" height="51" as="alternateBounds"/>
                    </mxGeometry>
                </mxCell>
                <mxCell id="130" value="*" style="whiteSpace=wrap;html=1;aspect=fixed;strokeColor=#FFFFFF;fontColor=#000000;fillColor=#FFFFFF;fontSize=14;" vertex="1" parent="1">
                    <mxGeometry x="369" y="281" width="19" height="19" as="geometry"/>
                </mxCell>
                <mxCell id="131" value="*" style="whiteSpace=wrap;html=1;aspect=fixed;strokeColor=#FFFFFF;fontColor=#000000;fillColor=#FFFFFF;fontSize=14;" vertex="1" parent="1">
                    <mxGeometry x="369" y="509" width="19" height="19" as="geometry"/>
                </mxCell>
            </root>
        </mxGraphModel>
    </diagram>
</mxfile>